# Blender v2.79 (sub 0) OBJ File: 'arrow.blend'
# www.blender.org
o Cube_Cube.001
v -0.842724 -0.207922 -0.026653
v -0.842724 0.207922 -0.026653
v 0.000000 -0.207922 -1.288956
v 0.000000 0.207922 -1.288956
v 0.842724 -0.207922 -0.026653
v 0.842724 0.207922 -0.026653
v 0.000000 -0.207922 -1.288956
v 0.000000 0.207922 -1.288956
v -0.842724 -0.207922 -0.026653
v -0.842724 0.207922 -0.026653
v 0.842724 0.207922 -0.026653
v 0.842724 -0.207922 -0.026653
v -0.399018 -0.207922 -0.026653
v -0.399018 0.207922 -0.026653
v 0.399018 0.207922 -0.026653
v 0.399018 -0.207922 -0.026653
v -0.399018 -0.207922 1.368916
v -0.399018 0.207922 1.368916
v 0.399018 0.207922 1.368916
v 0.399018 -0.207922 1.368916
vt 0.513327 0.603961
vt 1.144478 0.396039
vt 0.513327 0.396039
vt 0.000000 0.000000
vt 0.000000 0.000000
vt 0.000000 0.000000
vt 0.144478 0.603961
vt -0.486673 0.396039
vt 0.144478 0.396039
vt 0.000000 0.000000
vt 0.000000 0.000000
vt 0.000000 0.000000
vt 0.500000 0.144478
vt 0.921362 -0.486673
vt 0.078638 -0.486673
vt 0.500000 0.144478
vt 0.078638 -0.486673
vt 0.921362 -0.486673
vt 0.078638 0.396039
vt 0.300491 0.603961
vt 0.078638 0.603961
vt 0.000000 0.000000
vt 0.000000 0.000000
vt 0.000000 0.000000
vt 0.000000 0.000000
vt 0.000000 0.000000
vt 0.300491 0.513327
vt 0.699509 -0.184458
vt 0.699509 0.513327
vt 0.000000 0.000000
vt 0.000000 0.000000
vt 0.921362 0.603961
vt 0.699509 0.396039
vt 0.921362 0.396039
vt 0.000000 0.000000
vt 0.000000 0.000000
vt 0.699509 0.603961
vt 0.300491 0.396039
vt 0.699509 0.396039
vt 0.513327 0.603961
vt -0.184458 0.396039
vt 0.513327 0.396039
vt 0.699509 0.513327
vt 0.300491 -0.184458
vt 0.300491 0.513327
vt 0.513327 0.396039
vt -0.184458 0.603961
vt 0.513327 0.603961
vt 1.144478 0.603961
vt 0.000000 0.000000
vt -0.486673 0.603961
vt 0.500000 0.144478
vt 0.500000 0.144478
vt 0.300491 0.396039
vt 0.300491 -0.184458
vt 0.699509 0.603961
vt 0.300491 0.603961
vt -0.184458 0.603961
vt 0.699509 -0.184458
vt -0.184458 0.396039
vn -0.8317 0.0000 -0.5552
vn 0.0000 0.0000 1.0000
vn 0.8317 0.0000 -0.5552
vn 0.0000 -1.0000 0.0000
vn 0.0000 1.0000 0.0000
vn 1.0000 0.0000 0.0000
vn -1.0000 0.0000 0.0000
vn 0.0000 0.0000 -1.0000
s off
f 2/1/1 3/2/1 1/3/1
f 3/4/2 8/5/2 7/6/2
f 8/7/3 5/8/3 7/9/3
f 2/10/2 9/11/2 10/12/2
f 3/13/4 5/14/4 1/15/4
f 8/16/5 2/17/5 6/18/5
f 9/19/2 14/20/2 10/21/2
f 1/22/2 12/23/2 9/11/2
f 6/24/2 10/12/2 11/25/2
f 5/26/2 11/25/2 12/23/2
f 14/27/5 19/28/5 15/29/5
f 11/25/2 14/30/2 15/31/2
f 11/32/2 16/33/2 12/34/2
f 9/11/2 16/35/2 13/36/2
f 19/37/2 17/38/2 20/39/2
f 15/40/6 20/41/6 16/42/6
f 16/43/4 17/44/4 13/45/4
f 13/46/7 18/47/7 14/48/7
f 2/1/1 4/49/1 3/2/1
f 3/4/2 4/50/2 8/5/2
f 8/7/3 6/51/3 5/8/3
f 2/10/2 1/22/2 9/11/2
f 3/13/2 7/52/2 5/14/2
f 8/16/2 4/53/2 2/17/2
f 9/19/2 13/54/2 14/20/2
f 1/22/2 5/26/2 12/23/2
f 6/24/2 2/10/2 10/12/2
f 5/26/2 6/24/2 11/25/2
f 14/27/5 18/55/5 19/28/5
f 11/25/8 10/12/8 14/30/8
f 11/32/2 15/56/2 16/33/2
f 9/11/8 12/23/8 16/35/8
f 19/37/2 18/57/2 17/38/2
f 15/40/6 19/58/6 20/41/6
f 16/43/4 20/59/4 17/44/4
f 13/46/7 17/60/7 18/47/7
